<svg width="500" height="500" viewBox="0 0 500 500" xmlns="http://www.w3.org/2000/svg" role="img" aria-label="Default Avatar">
  <defs>
    <linearGradient id="g1" x1="0" x2="1" y1="0" y2="1">
      <stop offset="0%" stop-color="#3EC0E8"/>
      <stop offset="100%" stop-color="#22A6C9"/>
    </linearGradient>
  </defs>
  <rect width="500" height="500" rx="120" fill="#F3FAFD"/>
  <g transform="translate(80,60)">
    <path d="M170 0l170 55c6 2 6 10 0 12l-39 12v73a8 8 0 0 1-11 7l-29-10a170 170 0 0 0-181 0l-29 10a8 8 0 0 1-11-7V79L0 67c-6-2-6-10 0-12L170 0z" fill="#6FDA44"/>
    <path d="M170 146c13-12 44-36 82-36 75 0 108 72 101 140-8 82-84 152-183 152S-4 332 4 250c7-68 40-140 115-140 38 0 69 24 82 36z" fill="url(#g1)"/>
    <circle cx="120" cy="232" r="24" fill="#17A2C4"/>
    <circle cx="220" cy="232" r="24" fill="#17A2C4"/>
    <path d="M170 260v52" stroke="#0E8EAB" stroke-width="18" stroke-linecap="round"/>
  </g>
</svg>

